<mxfile host="app.diagrams.net" modified="2022-06-16T03:41:17.194Z" agent="5.0 (Windows NT 10.0; Win64; x64) AppleWebKit/537.36 (KHTML, like Gecko) Chrome/102.0.5005.63 Safari/537.36" etag="X-iXC1f78KxeZ-Vna14x" version="20.0.1" type="github">
  <diagram id="CFwtdcjnBAvuXBl-HyBk" name="第 1 页">
    <mxGraphModel dx="1044" dy="541" grid="1" gridSize="10" guides="1" tooltips="1" connect="1" arrows="1" fold="1" page="1" pageScale="1" pageWidth="3300" pageHeight="4681" math="0" shadow="0">
      <root>
        <mxCell id="0" />
        <mxCell id="1" parent="0" />
        <mxCell id="VCMHvPQlhcBCw7pvo6eR-2" value="" style="shape=image;verticalLabelPosition=bottom;labelBackgroundColor=default;verticalAlign=top;aspect=fixed;imageAspect=0;image=data:image/png,iVBORw0KGgoAAAANSUhEUgAAAboAAAFPCAYAAAA7qAsvAAAgAElEQVR4nO3dd3xV9f3H8dfN4iZACCOBEMwNBAh7KyKKylDqBGytNtQBtSL6ExWLo9BCUcpw4ACso9ZRRRygYKuAohQiKgEEZCaQSxJkk0lC1vn9kQRys24CCTf55v18PO4D7/me8bn3nHPf+Z6lzbIsCxEREUN5eboAERGR2qSgExERoynoRETEaAo6ERExmoJORESMpqATERGjKehERMRoCjoRETGagk5ERIymoBMREaMp6ERExGgKOhERMZqCTkREjKagExERoynoRETEaAo6ERExmoJORESMpqATERGjKehERMRoCjoRETGagk5ERIymoBMREaMp6ERExGgKOhERMZqCTkREjKagExERoynoRETEaAo6ERExmoJORESMpqATERGjKehERMRoCjoRETGagk5ERIymoBMREaP5eLoAKcvpdJKQkODpMsRDIiIicDgcNTY/bU+eVdPrU6pPQVdHFe4cWj0NjdOZVyvz1fbkGbW1PqV6dOhSRESMpqATERGjKehERMRoCjoRETGagk5ERIymoBMREaMp6ERExGi6saYeOp2fzc7jO0hKSyQtJw2AQL9A2gVeRNeW3WjkbfdwhVKfZOdD7PEC9qdBSq4FQJCvjfaB0L+lF3ZvDxcocp4UdPWMMzWBmOR15Bbkugw/kX2CE9kn2HlsB5eFXY6jWYSHKpT65o09+eQUuA47etri6FHYcjyf+7sq6aR+06HLesSZmsDapG/KhFxJuQW5rE36BmfqhXvkU+buz5h8/QjatupHl0G/Y/QLWy7YsmtPAv957iUm/+ZF1mBVMt5BvnrlH8yaOo1bBsxkZaXj1i0Hj6QDlAm5korbisetPWuYYI/E378j/v4dsdu70DpyBMPufpnVSdV/ukiecyWTRw4hNHQ4N835gdRS68Vdu5hFQVdPZOdlEZO8Dstyv0NalkVM8jqy87LKtG0/uo3Xtizi1S2L2HQo9vwLS1vPk7e9R4spb7PX+SXv3t2cresTjPjhsNJ38sXyZE67HdOHAHsKcdszqCQz6pSc3HxitydXefzY7cnk5OaXGV5z29PVLDwyn1HWCN78ZRfZGZvZ9dVc7rCvIHrSpxyu1vZ0nA+nzCZl3GLi4/9Ch8/WE1etdjGNDl3WE7tO7CzTk1s8c5XL+9umjTjz37kFuew6sZM+If1cxolJXsetXW7Dy+bFuz+/Rb82/c+rrkPL3mT96Cf5/so2eGNjwB9nMH3HBziBXuc1Z0+L4Pq//oblf//CzXhtGTZhPMNYw66n3I1bd8Q7T5CXdzY88gsK2Lf2aw5siSU3M4MW4Q66jbyZJsHBAOTlWcQ7T9C1Y7DLfGpye/IKbEIzAgkK8gZ8aB7RlztnTeCzbtvYwxhaV3lOcWz8X09ufCuUAHtb5q8fUs12MY2Crp5ISkssM+y2aSP48fMdAFx8fbdypykddNl5pwmyNwcgr6DsX+jVc5wvP4njxqk98MZWNKwVN903klNVmdzKITXpONZFbQg6M71cCL8cdT0UGffNatIPH2bw+PvwbuTHsX3x+AU0LjNN6aCr2e2pHKeyyIwIqUbIAZwi84Qde4XXZLlrF9Po0GU9kZ5T/XMk5U1jK8qTFzc+f+bfkq/qOYQzviMd27uGVLOoSELPBNcJ1j//EIM69KJlxA1Ez93AkaLDr7Ezr6N1p+d478PH6Bt2MVdMX0fsOw/Tt20/+tz3T569826G9Z7Jsp0f88fLBhLa4Vfc/KdP2Z1Z3BPJI/mrfzBu2HDatexJWM/b+b/39pKDBWSw6m/juWH4aHqFT+NLUvhxwcMMDO9L1JgPiMdyM/1Z+clrmTFmJGFhVzHk7jf48UQ1DqNZqWx+Yxoj+w4iLGoUY+es42Cu5w/rZp5yPTqQtDWWHtffjL1pIL5+dkK7dMevcUCl00BNb08l5ZLm/IFFszdzzfzf0plYpoRHYrc/xhdn1s/GUsMK3/v738Nbto8Z7d+p3PErbqeS9VWV7UnqKgVdA/N//R+qwbmd4OiBIIKaVTzGkQ//yj1fR/HM/9aTsH46A2KeZNKSowD0f+JxotnCDq97WLluEk0X/p33/Cey6sfHcby1g+C7esHu71i83It7P1rDvk0LuTvnFaKf2VoURrv45xObuOSlD4j7JZZtbw3mp8mL+R6ARvS69QGmPnElIUdOs//DV1nWfBzLdy5jQXQUhX2QyqYvtpd/vRbH1c8tIW7Xv/lzq0+4c84PZcKwIsnvP8HEDX34+39WE/fji9yVsZA7FsZj1ckfxuqfYazZ7QngI0b7d8LfvyshV7xE6qiHmDiwGTCA2VufZ5TLuAOYvX0+o0u8n3sgnqys17jTuoWlWXvJzp7DyDN/dLlrr3h9FeBXhe1J6ioFXT3R1K/pBZmmenzxtWeQmVlR+wEWv7yf8fPuZXBYU5qGDeChObexb8Fy9mOBrze+9OOGWzoS3D6M8LQejPh1R1qFBRNa4E3w1b3pRA/ueHQU/dsG4B/UnlFTfk+LZd+yB4AeTPvhH0yIasSxHbGs3XES28kMMotqa92lL5cO601HdpPYbjxP/64nIY0dDL+lDy2wuZm+WCA3ThzHkIhA/JuGce1DYwn/73fsqtL3k8CSBVlMnDWGvqGN8Q8MZ/hj0QS/v5q95/iN15TGAb4u79v16se2z5eRnZZCzqksErfEcjLxQKXT1I5fszRrL1npWzn47SSav/MAd71feNGMV1BTgkqNXXher6ZUvL7iqrQ9SV2loKsn2gVeVGbY4pmriN+UTPym5DIXplQ0Tc0KoW37ZA4edh2adfAXTmIBB9m/0/XQpi3CQdfdyZQ941gRG14lt9JWLWmbfJLjxcva9j5jB47it09/ynf7Uij/xosuXDGoRbkt7qdvTUhIibfBrWh7MIUTVar9EAf2ruWP4Z3OXDbvHzyJpXsOklSl6WtPaLDrH0GdrhxOYOtQ1r+xiDXzZ3F453bsgYGVTlOrfAJo0X4A9865jYx5y9hxQXrAVV1fFW9PUjfpYpR6okuLruw8tsPlysuSV1mW5uvlS5cWXWu5qnD6Dz7Cc+sO8VDn0KJh6Xy59Dsuvn80zWnDRR0TST4ItC9qPvgL+zuGEnaOS7T2J7Ajsg1tAUjkjQf/TeSiZbx7cRNgDRNmVefKx6pMX0B+PlB8z/ShwyR0CCGUqmhNu8ireG3564xtVbf+4o90tCDuwPEz7728vYkaei1RQ68td3wfHxuRDg/8uPv64Xf4JCcBsGErvT5y8sipsYXV3fUl50dBV0/Yffy5LOxy1iZ94/ZeOpvNxmVhl2P38a9wnAcHPFwDVflwxd3jePL2ubx78TRu6ZDLtvde5Lu2jzAKGxDBrfcGcd3U9xj43Ci62PbzwbTFtJrwJpHYICubLLLJygIo+9+nMgFi+eD17+k8uietMrfxypS3Cb77PToCcJgD8X4098knO+Mwe76LZZ/XHj5bsJYu9w8hAhtWZhYZZJKZYUGT0j9e7qYHmm1jxZs/0ff2rjTL3M+Kp9+FsS8XLf8sK+MU6aSTlmpBs+LlOBgzvoDbp35Elz9fQ4/WfqTv38CbSzKInnYDYR483OXn603/HlX/c6N/jzD8fCt+QkpNbE9WxinSOFW4rhrnknFwD58+9Qpbb/oT3QFoSUj7H1ixzMnlN7bF++gevli+ijg28fbcdfSYcjnt3K5zKml3v77czVvqJh26rEcczSIY0u4qfL0qPlfi6+XLkHZXXbBHgPn0GM+SueEsu3skjm538ULaaB4bffYv/3ZjZ/F8jxgmXDKIzlfPYMOls3g1ug0Aa6b+mSW2z/nDE/9j9RNTyvz3xGm7gP4MjdzApCFX0OWauey44hneGBeODRvQh3uf7cYXv74Kx6An+dzvesaPOcLKmBR8SGbB0EgCWj3Ix7YvGBvcGXv408S4HAKrePrCb9hGx8nPMy3iK/5w8SA6XfE4n4Y/zjsTIkvcTlH4RI+A4El8YlvJnW06l7iSz4v2dz/DC3238ZfR1+G4aDg3Tt/GgPHXeTTkirUNKTwU6VfJr0BxW/G4tWcN97V6kKW2/xauK/9edB72OB83uYdPZg8tuv2kO3+Ydw3OGb8hst1VDH94JQHXXcNll/YhsuhWgTWT+7muc/t9fJh2dp1X3l7Z+jpYhe1J6iqbVZVHbcgF5XQ6AXA4yu9wN5SHOluZnzO25XJu+GUBtzdvGM9bdDoLH3flcDhqcJ6Vb096qHPtqY31KdWnQ5f1UCNvO31C+pW5GdwsG3ms64N8YrPxcegD+BxZyG8CPd8LMpHdGwaHeDE4xP24IvWRgk7qqMJ7nuZ6ugwRqfd0jk5ERIymoBMREaMp6ERExGgKOhERMZqCTkREjKarLuuw6Ogpni5BLrBZs2bV2ry1PV14tbk+pep0w3gd5HQ6SUhI8HQZ4iERERE1fsO4tifPqen1KdWnoJM659kNzzL50smeLkPqiGef3cDkyZd6ugypx3SOTuqUmKQYHl31KDFJMZ4uReqAmJgkHn10FTExnv4fG0l9pqCTOmXGtzNc/pWGbcaMb13+FTkXCjqpM2KSYli5byUAK/etVK+ugYuJSWLlyn0ArFy5T706OWcKOqkzSvfi1Ktr2Er34tSrk3OloJM6oWRvrph6dQ1Xyd5cMfXq5Fwp6KROqKj3pl5dw1RR7029OjkXCjrxuPJ6c8XUq2t4yuvNFVOvTs6Fgk48zl2vTb26hsVdr029OqkuBZ14VGW9uWLq1TUclfXmiqlXJ9WloBOPqmpvTb26hqGqvTX16qQ6FHTiMVXpzRVTr858VenNFVOvTqpDz7oUkTrNZpuJZU3zdBlSj6lHJ3XOjLU6TCkiNUdBJ3XO9G+ne7oEETGIgk5ERIymoBMREaMp6ERExGgKOhERMZqCTuqc6VfqYhQRqTm6j05E6jTdRyfnSz06qXN0H52I1CQFndQ5uo9ORGqSgk5ERIymoBMREaP5eLoAkfLYZtqYfuV0/jrkr8xYO6Pcw5kXqr2hstlmeroEkRqhqy5FpFy62lFMoUOXIhXQ1Z8iZlDQiVRAV3+KmEFBJyIiRlPQiYiI0RR0IiJiNAWdiIgYTUEnUgH9XxREzKD76ESkXLqPTkyhHp1IBXQfnYgZFHQiFdB9dCJmUNCJiIjRFHQiImI0BZ2IiBhNQSciIkZT0IlUQPfRiZhB99GJSLl0H52YQj06kQroPjoRMyjoRCqg++hEzKCgExERoynoRETEaAo6ERExmoJORESMpqATqUBDv49u+vQrPV2CSI3QfXRSZzmdThISEjxdhnhIREQEDofD02WIAXw8XYBIZQp/7LSZNjROZ56nSxCD6NCliIgYTUEnIiJGU9CJiIjRFHQiImI0BZ2IiBhNQSciIkZT0ImIiNF0g5LUW9n5EHu8gP1pkJJb+NyDIF8b7QOhf0sv7N4eLlBE6gQFndRbb+zJJ6fAddjR0xZHj8KW4/nc31VJJyI6dCn10MEj6QBlQq6k4rbicWvPGibYI/H374i/f0fs9i60jhzBsLtfZnXShXi6R80uP8+5kskjhxAaOpyb5vxAKla12kXqIgWd1Cs5ufnEbk+u8vix25PJyc0vM3z70W28tmURr25ZxKZDsedR0dUsPDKfUdYI3vxlF9kZm9n11VzusK8getKnHK71IKjJ5R/nwymzSRm3mPj4v9Dhs/XEVatdpG7SoUupV+KdJ8jLO/vjnV9QwL61X3NgSyy5mRm0CHfQbeTNNAkOBiAvzyLeeYKuHYNd5hOTvI5bu9yGl82Ld39+i35t+p9zTV6BTWhGIEFB3oAPzSP6cuesCXzWbRt7GEPrasxr6+yXOfj4/YzE5oHlx7Hxfz258a1QAuxtmb9+SDXbReomBZ3UK78cdT0UGffNatIPH2bw+PvwbuTHsX3x+AU0LjNN6aDLzjtNkL05AHkFZXt85+1UFpkRIVUPmYLTHNm+jLmvJzL2cQ8sv3AiMk/YsdvPtV2kbtKhS6lXMk/lurxP2hpLj+tvxt40EF8/O6FduuPXOKDSaQBsRR2mFzc+f+bfkq9zl0ua8wcWzd7MNfN/S2dswDfc37InQfZIJnyeB19MLTqf9hhfYAG7mNW/G46Bf+bj5I8Z7d+pRFsRK5XNb0xjZN9BhEWNYuycdRzMLe+wZOnlxzIlPLLU/DaWGlb43t//Ht6ylbd8d+2V1ZfBqr+N54bho+kVPo0vSeHHBQ8zMLwvUWM+IF7n+OQCUNCJASq5KqUC/9f/oRqu4SNG+3fC378rIVe8ROqoh5g4sFlR21UsOLaYR34/nWnXe8PIqXzw4O0scT5VdIiyC09ujicr6zXutG5hadZesrPnuBy+TH7/CSZu6MPf/7OauB9f5K6MhdyxMB7rTFBUtPwBzN76PKNcah3A7O3zGV3i/dwDlS3fXXvF9RXgR69bH2DqE1cScuQ0+z98lWXNx7F85zIWREfRvIbXgkh5FHRSrzQO8HV5365XP7Z9vozstBRyTmWRuCWWk4kHKp2mdvyapVl7yUrfysFvJ9H8nQe46/0SF83YujO6cwJrDgN524lrO5obWlf1zEECSxZkMXHWGPqGNsY/MJzhj0UT/P5q9lZh+V5BTQkqNcfC83o1peL64vCldZe+XDqsNx3ZTWK78Tz9u56ENHYw/JY+tKjGuUiRc6Wgk3olNLipy/tOVw4nsHUo699YxJr5szi8czv2wMBKp6lVPgG0aD+Ae+fcRsa8ZewocWiu502hbPgkkZx1P+I1uDdeVf6RP8SBvWv5Y3inM7cR+AdPYumegyRVY/m1p6r1deGKQS0uQD0irnQxitQrkY4WxB04fua9l7c3UUOvJWroteWO7+NjI9LhgR9XXz/8Dp/kZMlhUSPoNO9DXjrZlKFPlPc3ps0l+gpSUkgPakYzWtMu8ipeW/46Y1tVMRxdlm/DRgH5+UDxPfQ5eeRU+0NV5BzqE7mA1KOTesXP15v+PcKqPH7/HmH4+Vb8hJQHBzxc7qs6rIxTpHGKzAwLrBwykrfz7z+/wtabLqO7y5gORg2I5d2Cy+hTbh40o3nYbjbFpnE6I4Elb64lpWi6MeMLeHnqR2xMTCU7J4uju9cwd+ZykrGqsPyWhLT/gRXLnKTmFLZ/9M9VxBHL23PXkVTU67Mys8ggs3A+5X3OCtsrr68q8xapTQo6qXfahhQeivSrZOstbiset/as4b5WD7LU9l/GBnfG7t+LzsMe5+Mm9/DJ7KEElTo82eqigdxxU7dSfbdiPblzRgc+HXMVkUPmkXL1MBzYAC/a3/0ML/Tdxl9GX4fjouHcOH0bA8ZfRxjfVGH53fnDvGtwzvgNke2uYvjDKwm47houu7QPkUW3CqyZ3I+AVg/yse2LwvnY7+PDtLOhVHl7ZfUdZMHQSNdpw58mRldbygVksyxLW5zUSU6nEwCHo/wj7PXnoc55nHQmkdPc4pOZ6xk5L5r2ugijUk5n4ePLHA6HhysRE+gcndRbdm8YHOLF4BBPV+LOPt6+K5p5qYOY+e5chZzIBaYendRZ7np0Yi716KQm6RydiIgYTUEnIiJGU9CJiIjRFHQiImI0BZ2IiBhNl7NJnRcdPcXTJcgFNmvWLE+XIAbR7QVSZzmdThISEjxdhnhIRESEbi+QGqGgE6nAs89uYPLkSz1dhsc09M8v5tA5OpFyxMQk8eijq4iJKfM/wmkQGvrnF7Mo6ETKMWPGty7/NjQN/fOLWRR0IqXExCSxcuU+AFau3NfgejUN/fOLeRR0IqWU7sU0tF5NQ//8Yh4FnUgJJXszxRpSr6ahf34xk4JOpISKei8NpVfT0D+/mElBJ1KkvN5MsYbQq2non1/MpaATKeKu12J6r6ahf34xl4JOhMp7M8VM7tU09M8vZlPQiVD13oqpvZqG/vnFbAo6afCq0pspZmKvpqF/fjGfnnUpUgGbbSaWNc3TZXhMQ//8Yg716ERExGgKOhERMZqCTkREjKagExERoynoRETEaAo6ERExmoJORESMpqATERGjKehERMRoCjoRETGagk5ERIymoBMREaP5eLoAqftstpmeLkE8pKGuez3M2iwKOqkS7fgNT0Nd5w013E2mQ5ciImI0BZ2IiBhNQSciIkZT0ImIiNEUdCIiYjQFnYiIGE1BJyIiRlPQiYiI0RR0IiJiNAWdiIgYTUEnIiJGU9CJiIjRFHQiImI0BZ2IiBhNQSciIkZT0ImIiNEUdCIiYjQFnYiIGE1BJyIiRlPQiYiI0RR0IiJiNAWdiIgYTUEnbk2ffqWnSxC5YLS9m8dmWZbl6SLOl9PpJCEhwdNliJyTiIgIHA5Hjc1P+4N4Uk1vzzXBx9MF1JTCL9eYjyMNhNOZVyvz1f4gnlBb2/P50qFLERExmoJORESMpqATERGjKehERMRoCjoRETGagk5ERIymoBMREaM1iBttsvMh9ngB+9MgJbfw/vggXxvtA6F/Sy/s3h4uUOQCysqHTccL2JcGJ3MK94fmfjY6BEK/ll74a38QwzSIoHtjTz45Ba7Djp62OHoUthzP5/6u2rOlYdiTavFlckGZ/eFItsWRbNh0LJ9rw7zo3MzmmQJFaoHRhy4PHkkHKLNTl1TcVjxu7UlmwdBI/P07Ejb5OyyKnry2YS4d7JHYh/6LA9Sxp7Gd3s3S517kkVte4Gu+ZoK9sH5//47Y7V1oHTmCYXe/zOqkC/E0hDU1uvw850omjxxCaOhwbprzA6mlvnt37fXRnlSLFUllQ66knAJYkVTAntTa/rxn16fd/hhfYFUwrPaXr+3ZfMYGXU5uPrHbk6s8fuz2ZHJy88sM3350G69tWcSrWxax6VDseVQUxsRPX2C0ZXF8yx6SioYmb9vGQa7lnWV3EE7d+yvaOrGdzz8/SA5Xs/DIfEZZI3jzl11kZ2xm11dzucO+guhJn3K41necmlz+cT6cMpuUcYuJj/8LHT5bT1y12uufU3mFPbmqPNnWsuDL5AJO5dXmOr2aBYee52ZrBG/+8jQjsZ0ZNsplWO0tX9tzw2Hsoct45wnySuyo+QUF7Fv7NQe2xJKbmUGLcAfdRt5Mk+BgAPLyLOKdJ+jaMdhlPjHJ67i1y2142bx49+e36Nem/znXZGvamEA60TVzJzty4SLfPLb99BPwK5oG1r2Qo1EUY2bexpfPfAmAV2ATmhFIUJA34EPziL7cOWsCn3Xbxh7G0Loas946+2UOPn5/tX7Mam75cWz8X09ufCuUAHtb5q8fUs32+mfzCculJ1dQkE/82q9J3LyRnMx0WoS3p/t1N9O4VQhQ2LPbfMJicEjF6yc3L5/kQ4VHQsLaNMXXp3qnALyDmhJEIM2be7sMa1ZqWG3R9txwGBt0vxx1PRQZ981q0g8fZvD4+/Bu5MexffH4BTQuM03poMvOO02QvTkAeQVle3zV14NB/fby8z64NiqBrUnNiaiBudYam63yXfdUFpkRIVXfKQtOc2T7Mua+nsjYx8+/vGovv3AiMk/YsdvPtb3+2Zfm+n7vN6vJOHKIy/4wEZ9Gdo7ti8M3oEmZaQaHlD+/3Lx81ny3n9M5hfvEnv3HuHpQ+2qHXZ2j7dlIxh66zDyV6/I+aWssPa6/GXvTQHz97IR26Y5f44BKpwGwFf3Kv7jx+TP/lnxVnze9etnZ9nMWpO8irv1VXH6mLY/kr/7BuGHDadeyJ2E9b+f/3ttLDhawm9fuvJthvWeybOfH/PGygYR2+BU3/+lTdmdWpb2IlcrmN6Yxsu8gwqJGMXbOOg7mlmgvOMmPrzzJ8N4DaddlDH98ew9lvxWAXNKcP7Bo9maumf9bOmMDvuH+lj0Jskcy4fM8+GJqqfMtu5jVvxuOgX/m4+SPGe3fqey5GHf1Vbj8WKaER5aa38ZSwwrf+/vfw1u28pbvrr2y+jJY9bfx3DB8NL3Cp/ElKfy44GEGhvclaswHxHv4nEhKjuvyk3+Kpft1o7A3bYaPXyPadOmOX0BApdO4TH8oneycPEZcHsmIyyPJzsk707urUZVuD+ezv5Sm7bk+bc/VZWzQla+Ss/AV+L/+D9V4FY7u3YjbsQ9+3kmjS/uV6Fbv4p9PbOKSlz4g7pdYtr01mJ8mL+Z7AEIZdldv2P0di5d7ce9Ha9i3aSF357xC9DNbOU2bSttzijbM5PefYOKGPvz9P6uJ+/FF7spYyB0L489cHJP07mPc8R8H0z9fzd4NzzHm2GZiXKr/iNH+nfD370rIFS+ROuohJg5sVtR2FQuOLeaR309n2vXeMHIqHzx4O0ucTxUd0unCk5vjycp6jTutW1iatZfs7Dkuh3vc1Vfx8gcwe+vzjHKpdQCzt89ndIn3cw9Utnx37RXXV4AfvW59gKlPXEnIkdPs//BVljUfx/Kdy1gQHUXzc9tUalld+LEqXp8di1738K8SrZVvD+e+v+S43Z5A23N9254rZmzQNQ7wdXnfrlc/tn2+jOy0FHJOZZG4JZaTiQcqnaa22Lp2peXWvWzflk3UxYElWnow7Yd/MCGqEcd2xLJ2x0lsJzPIBCCQDlf3phM9uOPRUfRvG4B/UHtGTfk9LZZ9y1437XsASGDJgiwmzhpD39DG+AeGM/yxaILfX83e4vZXkhg3+x4ub9cU/6AIRj7yW1z/f8u/ZmnWXrLSt3Lw20k0f+cB7nq/xEU/tu6M7pzAmsNA3nbi2o7mhtZVPULurr7Kl+8V1JSgUnMsPA9SUyquLw5fWnfpy6XDetOR3SS2G8/Tv+tJSGMHw2/pQwsPX2gU5Oe6/LDe/di+YinZaSnkZmWRtGUjKYnOSqdxmb5NU+x+PqxaF8+qdfHY/XwIa9P0HCorWp9ZcUWv17jrTJu77eHc95c9pZev7blebc/VZWzQhQa77nSdrhxOYOtQ1r+xiDXzZ3F453bsgYGVTlNrWnWi96HtLE5qysAOrk1Z295n7MBR/PbpT0cVc1QAABB1SURBVPluX0o5hw1teJVca61a0jb5JMer1H6IA3vX8sfwEn9BB09i6Z6DRVeBHiIxrjOdI6uwEfsE0KL9AO6dcxsZ85axo0TvoOdNoWz4JJGcdT/iNbg3XlXeKdzVV7Xl156q1teFKwa1uAD1VF0H102dTleNoGmbUGJeX8DXz8/i8K7tNCq1P5SepiRfH2+uHtSenlGt6RnVupbOz7n/vs9/fymi7blebc/VZezFKJGOFsQdOLs5e3l7EzX0WqKGXlvu+D4+NiIdF2plRtLL8Sl/Sp/NNJfhibzx4L+JXLSMdy9uAqxhwqwvKp2TtT+BHZFtaFul9ta0i7yK15a/zthW5e2sLWgTfoQjx4CwokHZp8mqrABfP/wOn+RkyWFRI+g070NeOtmUoU+U97eU6wUuBSkppAc1o5nb+twt34aNAvLzgeLf3Jw8cqo2pyo4h/rqiL4tbGw6dvbKSy8vb6KGjiRq6Mhyx/fzKpymMr4+3kS0K93nqEnuvu+a31+0PZvJ2B6dn683/XuEuR+xSP8eYfj5VvwX6YMDHi73VR1WeiZpZJKZ4U+33qH07NWLRqeyyCSd9DQLOMyBeD/sPvlkZxxm66pY9nnt4bMFa0k48xdeLB+8/j37jmeSdmAD86a8TfDdI+l4ZimVtTsYM76Al6d+xMbEVLJzsji6ew1zZy4nGQvowM3ROSx6agU/Hz1Fdsp+Pl24jK3E8vbcdRzIyCSNU2RmWGDlkJG8nX//+RW23nQZ3V0+qYNRA2J5t+Ay+pS7/zSjedhuNsWmcTojgSVvriWlCvVZGafcLL8lIe1/YMUyJ6k5he0f/XMVcUX1JxV9h1ZmFhlkFs6nvPVUYbu778/9vD0lwMfGtWFeZy6uqozNBteGeRHgU7s/fgWpGaSSSXra2XPnBRmnSCed1JQC3H/f57e/uN+eiml7rmvbc7VZBkhISLASEhIsy0oq9/XyDqf13PbyXy/vcFY4Xc2+tltvj2lk2e12q8Wk96zT/33Smv/z2WGNrn7KSrD2W3FL7rKGdAi2Qnpca836ZpW1ONphRf5ugZVkJVqW9Y51b6No6+2vH7Vu6BZihUZdYt0590Prl9zEomW4a0+yrLyfrA2vjLN+1d9hhYQ4rIG3TbG+Si7xHZz+3lox/Qbr4g4h1kWX3GL9Y/Or1pQht1pPPv+4Fd2osFa73W41atTECo3qY41+9AXrp5TEMp83Y8WfrOd+OlDBd5Fg7XrnVuuS8GArrO/N1qLNu6tQ3zvWvW6Xf8A6sPw+61c9Q62WweHWwN88Yn3u/Jf12JW3WVNfeN9KtBKtrx8JOTOPwvncaC1JPVu/u/aK6/veevnqRq7TXnSftd4q+92UfJ3ddmtOZfvD7pRE68WfndYz28p/vfiz09pdzvqs+dfZ9dmoUbT13zPbd6lhlW6vCeexv1Rle9L2XBe255pgs6yqPCuhbnM6C0+iOxzlH4k15aHOVubnjG25nBt+WcDt5dxQ66699uVx0plETnOLT2auZ+S8aNrXs5PWF5rTWfi4J4fDUYPzrHx/aCgPdT7//UHbc3XVxvZcE4w9R1eS3RsGh3hVePNr/bCRx7o+yCc2Gx+HPoDPkYX8xuVpKu7aL4R9vH1XNPNSBzHz3bn6Uaij/I3YH9ypif1B27MpGkSPTqSu8kSPTqS21NUenbEXo4iIiICCTkREDKegExERoynoRETEaAo6ERExmlGXZUVHT/F0CSLVMmvWrFqbt/YHudBqc3s+H8bcXpCQkODpMkTOSURERI3fXqD9QTylprfnmmBE0EntevbZDUyefKmnyxAROSc6RyeViolJ4tFHVxETU+Z/LCIiUi8o6KRSM2Z86/KviEh9o6CTCsXEJLFy5T4AVq7cp16diNRLCjqpUOlenHp1IlIfKeikXCV7c8XUqxOR+khBJ+WqqPemXp2I1DcKOimjvN5cMfXqRKS+UdBJGe56berViUh9oqATF5X15oqpVyci9YmCTlxUtbemXp2I1BcKOjmjKr25YurViUh9oWddils220wsa5qnyxAROSfq0YmIiNEUdCIiYjQFnYiIGE1BJyIiRlPQiYiI0RR0IiJiNAWdiIgYTUEnIiJGU9CJiIjRFHQiImI0BZ2IiBhNQSciIkZT0ImIiNEUdCIiYjQFnYiIGE1BJyIiRlPQiYiI0RR0IiJiNAWdiIgYTUEnIiJGU9CJiIjRFHQiImI0BZ2IiBhNQSciIkZT0ImIiNEUdCIiYjQFnYiIGE1BJyIiRlPQiYiI0RR0IiJiNAWdiIgYTUEnIiJGU9CJiIjRFHQiImI0BZ2IiBhNQSciIkZT0Ilb06df6ekSRETOmc2yLMvTRZwvp9NJQkKCp8sQOScRERE4HA5PlyFiLB9PF1BTCn8sjPk40kA4nXmeLkHEeDp0KSIiRlPQiYiI0RR0IiJiNAWdiIgYTUEnIiJGU9CJiIjRFHQiImK0BnHjWVY+bDpewL40OJlTeH98cz8bHQKhX0sv/L09XKCIiNQa44NuT6rFl8kF5BS4Dj+SbXEkGzYdy+faMC86N7N5pkAREalVRh+63JNqsSKpbMiVlFMAK5IK2JNa209CW8MEeyT+/h2x27sQEnkdNz30L9b/UtGTMXYx97cL2U5deULb2fqLP0PryBEMu/tlViddiKd71Ozy85wrmTxyCKGhw7lpzg+klvqe3bWLSP1hbNCdyivsyVXlSZ6WBV8mF3AqrzZ/zK5m4ZH5jLKG89qBTcT970Ue7PAjE657iq9PlrfcZnS8LILmtVhR9RTXP4I3f9lFdsZmdn01lzvsK4ie9CmHaz0IanL5x/lwymxSxi0mPv4vdPhsPXHVaheR+sTYoNt8wnLpyRUU5LP3m1V8/fzf+eKpJ/nh7dfIPHbkTHtOQeE0lcnNyychKYWEpBRy8/KrXZNXYBOa0YzgEH8C23Zk+IPz+fetG3n81d1YZX6oQxkz6TrC8Mwh1a2zX+aLUjUV1h9IUJA3+PjTPKIvd86awOUxO9hTA/N3p+aWH8fG//XkxptCCQgYwvz1D9Pf5Xt21y4i9YmxQbcvzfX93m9Wk3boIJf9YSLDp/yV8EsuwzegSaXTlJSbl8+a7/azbfdhtu0+zJrv9p9T2LnypdeoGyj4bwzOEkPzszM4eSSRjZ9tYP+FPmRWcJojWz9g7uuJVRv/VBaZESG0rq351/TyCyci84Qdu/1c20WkPjE26FJyXAMi+adYul83CnvTZvj4NaJNl+74BQRUOo3L9IfSyc7JY8TlkYy4PJLsnDySD6Wff6Hh4XTek0zSmQG7eXbYMC699CaG3LqU3WeGZ7Dqb+O5YfhoeoVP40tS+HHBwwwM70vUmA+ILw5EK5XNb0xjZN9BhEWNYuycdRzMLfm5TuP8ciHjRlxHh9Z9ibx0IrO/PlzUo9zFrP7dcAz8Mx8nf8xo/07Y7Y9V0PPKJc35A4tmb+aa+b+lMzbgG+5v2ZMgeyQTPs+DL6YWnU8rnkcV5u+2/oqWH8uU8MhS89tYaljhe3//e3jLVt7y3bVXVl8V14+IXHDGBl356uCPjb0RjTNzOH1mQBRT1n/P7t3zuN1lxEb0uvUBpj5xJSFHTrP/w1dZ1nwcy3cuY0F01JlzecnvP8HEDX34+39WE/fji9yVsZA7FsafOTR6/L8zuOZPuxk4bSGxCd/z08cj2fnIv/gRgC48uTmerKzXuNO6haVZe8nOnsNIl8N2HzHavxP+/l0JueIlUkc9xMSBzYrarmLBscU88vvpTLveG0ZO5YMHb2eJ86miebifv7v6K17+AGZvfZ5RLt/ZAGZvn8/oEu/nHqhs+e7aK66vAL8qrR8RufCMDbogP9dzKmG9+7F9xVKy01LIzcoiactGUhKdlU7jMn2bptj9fFi1Lp5V6+Kx+/kQ1qbp+Rd6Kov0lo1pUnq4rze+rgNo3aUvlw7rTUd2k9huPE//richjR0Mv6UPLbABCSxZkMXEWWPoG9oY/8Bwhj8WTfD7q9kLQDKL58UwZtFs7h0SQXN/P5qEDefvn46jT5UL/jVLs/aSlb6Vg99Oovk7D3DX+8lnm23dGd05gTWHgbztxLUdzQ2tq3oXi7v6K1++V1BTgkrNsfC8Xk2puL64Kq0fEfEEY4OuQ6Dr+05XjaBpm1BiXl/A18/P4vCu7TQKDKx0mpJ8fby5elB7eka1pmdUa64e1B5fnxq403z/fnZ0cxBRrYm6cMWgFuUMP8SBvWv5Y3inM5fh+wdPYumeg0WHRhOJ/7k3l/QrefIpgLaOYPyq+0PsE0CL9gO4d85tZMxbxo4SveWeN4Wy4ZNEctb9iNfg3nhVed7u6q/a8mtPVeuraP2IiCcYe8N43xY2Nh07e+Wll5c3UUNHEjV0ZLnj+3kVTlMZXx9vItqV7jOcjyy+++BzWv3qFVrXyF/8rWkXeRWvLX+dsa3Km18r2jgSSf4F6HB2aHpcApkdHbQ5U4PNpZqClBTSg5qV3zPy9cPv8ElOlhwWNYJO8z7kpZNNGfpEeX9LVTR/d/W7W74NGwXk5wPFf4Pk5JFTtTlVwTnUJyIeZ2yPLsDHxrVhXtiq8Htks8G1YV4E+NTuj5eVnkkaaZw8nsWJA9v4+K/3csd/hvC3Oxxlx83MIoN00tOscoZnkplRXg/GwZjxBbw89SM2JqaSnZPF0d1rmDtzOclYQHtG39GIBY/9k3X7T3IqOwPn+reZ9tFBXDuzzWgetptNsWmczkhgyZtrSQGsjFOkcapw2VYOGcnb+fefX2HrTZfRvVQdowbE8m7BZfQp9ystf/7u6ne//JaEtP+BFcucpOYUtn/0z1XEEcvbc9eRVNTrq/w7rKzd3ffrft4i4gGWARISEqyEhATLspLKvHanJFov/uy0ntlW/uvFn53W7pTEcqet2dc71r2NGll2u91q5N/EatOxjzXqoVnWul9K173aerpP4XjFr0Z9plhbrQ3Wy1eXGn7RfdZ6q1TteT9ZG14ZZ/2qv8MKCXFYA2+bYn2V7DzbnrPR+vrZ26yhvS+yQtp2toZOmGf9lFb68ydYu9651bokPNgK63uztWjzbpf67Xa71ahREys0qo81+tEXrJ/K+f4yVvzJeu6nAxV8F+XN3139VVn+AevA8vusX/UMtVoGh1sDf/OI9bnzX9ZjV95mTX3hfSvRSrS+fiTE9TtsdKO1JPVs/e7aK67v+6qtn1Kvs9uuiNQWm2VV5dkhdZvTWXhRicNR/pFYPdT5QsnjpDOJnOYWn8xcz8h50bTXRRiVcjoLH1/mcJTt1YtIzTD2HF1J/t4wOMSLwSGersR0+3j7rmjmpQ5i5rtzFXIiUic0iB6dSF2lHp1I7TP2YhQRERFQ0ImIiOEUdCIiYjQFnYiIGE1BJyIiRjPqMsXo6CmeLkGkWmbNmuXpEkSMZ8ztBQkJCZ4uQ+ScRERE6PYCkVpkRNCJiIhUROfoRETEaAo6ERExmoJORESMpqATERGjKehERMRoCjoRETGagk5ERIymoBMREaMp6ERExGgKOhERMZqCTkREjKagExERoynoRETEaAo6ERExmoJORESMpqATERGjKehERMRoCjoRETGagk5ERIymoBMREaMp6ERExGj/DzRQOIGqjKxtAAAAAElFTkSuQmCC;" vertex="1" parent="1">
          <mxGeometry x="20" y="60" width="442" height="335" as="geometry" />
        </mxCell>
        <mxCell id="VCMHvPQlhcBCw7pvo6eR-3" value="" style="shape=image;verticalLabelPosition=bottom;labelBackgroundColor=default;verticalAlign=top;aspect=fixed;imageAspect=0;image=data:image/png,iVBORw0KGgoAAAANSUhEUgAAAQ0AAAC1CAYAAABF/KqkAAAXgUlEQVR4nO3dfVRU550H8O8AM97xLZiqaLUCMgZiUGpNSJMYElSS2dBYkF3prt22DInb0m5o7TYY0vRsdzdEkh6baRqyx8i42d2elrRESst2ElSE2KTF2PhC0xCGCCamGmOrEZ0RBmb/mGFm7rzeZxhgGL6fc3ICc9+ee7nz8z537jxflcPhcICISKGEyW4AEU0tLBpEJIRFg4iEsGgQkRAWDSISwqJBREKSws3Q3t4+Ee0gohh21113uX8OWzScC+jGrTFEFNva2y2y39k9ISIhLBpEJIRFg4iEsGgQkRAWDSISwqJBREJYNIhIiKLnNIKxDQNHL4zg1MfAxSHnsBzJahXS5wJrP5EAKTEqbSSiGDKmolH/zjAGR+Svnb/mwPnzwLELw/j6jawaRPEmou7JBx9eBgC/guFtdNrovOOnDV+VMqDV6qDV6iBJWUjJKMCGsh9j//t24bXZ+1/Bt/V5WLx4IzbVduISHELTieKdcNEYHBrG0a4ziuc/2nUGg0PDfq93nT+J5489h93HnsMfzh4VbYaXfNR9+DSKHAXY++e3YRt4E28feBJfkn6NrZW/xDmhN/UF/Pzhnbho+Bl6e7+H5c2/hUVoOlH8E+6e9Pb/BXa75404PDKCdzsO4vSxoxi6MoDrl6Vipf7zmL1gAQDAbnegt/8vuFG3QLae184cxpasLyBBlYD//eML+MyitRHvRMLc2bgOc5GcnAggCfPS1uDLNV9F88qTeAebkaJ4TRa88eoq3P/CYsyUPomnf5snOJ0o/gkXjT+fl3c3LIf24/K5c7ij/GtInKHBR+/2QjNzlt8yvkXDZr+GZGkeAMA+4n8lMmZXrbiStlCgYADAVVz5iwRJinQ6UfwT7p5cuTok+/39E0eRXfh5SHPmQq2RsDjrJmhmzQy5DACoVM7//+iNH7r/7/1f5IbwcX8nntv5Ju55uhQ34CgeXpYBSaqC2d1VecPnNefvWu2DeEHViGLtioDzB58OwHEJb9Y/Bv2a27AkswhfrD2MD4YcAAbQ+m/l+NzGYqxe9hhexkUcefZbuHXZGmRubkAv74nQFBOl5zRC3BEN4p/XfjM6m3b7BYq1K6DV3oiFdz6DS0XfRMWt1wG4GTtP/BBFsnlvxs6up1Hs9fuTp3thtT6PLztKsM/aA5utFnqoFE4Hzvz0EVT87tN44v/2w3LkR/jKQB2+VNeLEWiwess38N1H7sLCD6/h1M93o2meAb/6UxOe3ZqJeVE+CkTjTbhozJqplv2+dPVncLKlCbaPL2LwqhXvHTuKv753OuQy4+Nvsc/aA+vlE/igvRLz/ucb+MpPnTdsE5LnINlnbud9kGjpw4vPWlFRsxlrFs+Cdu4ybKzaigU/3Q8L1EjJWoPPbsiBDt14b2k5Hv+HVVg4KxUbSz6N670KD9FUIFw0Fi+YI/t9xV0bMTdlMX5b/xzanq7BuT91QZo7N+Qy4yppJq5Pvxn/VPsFDDzVhLcm5PL/LE73dGDbshXuj361Cyqx750P8L5svizcedv1E9AeovEjfCM0I/V6WE5fcP+ekJiIzPX3InP9vYE3kKRCRuokvFHUGmjO/RV/BQCooMIIhocBjD5vNmjHYNQ2loKlGXfj+V/twRfn88qB4ptw0dCoE7E2e4ni+ddmL4FGHfzJ0Idu/pZoE/w4Bq7iY1zFlQEHMGsIAx+8g1/+x3/ixKbv4CYAwCewML0Tv27qx7r7P4nE8+/A/KtWWPAH/PeTh5H98DoshQqOK1YM4IpzPbP93/zBp6dic/kI/v67v0DWo/cgO0WDy6d+h70vDmDrY5/DEgXrJpoqIroR+smFzu6GJsTSo9NG5x0/bfja/IewT/UbfHHBDZC0q3HDhh1onP0gXtq5HslQAbgJDzx1D/q//3fIWHo3Nn7rFcy87x7c/tlPI8P18Wnbtz+DmfMfQqPK7FyP9DX8/GNP1yb09ASkl/0AxjUn8b3i+5D6qY24/19P4uby+7AEH+DZ9RnyZZc9jtf4qQlNUapwAdDt7e1BBxbmF9aI4l97u0V8NPJgpETgjoUJuGPhmNtFRFMEx9MgIiEsGkQkhEWDiISwaBCREBYNIhLCokFEQhR95Lp168Pj3Q4iilHbtm2T/a6oaPzkJ0+OS2OIKPYxNZ6IxoRFg4iEsGgQkRAWDSISEvEX1uzDI3jjxBm8c+oj3JixALfkLI1mu4goRkVUNOzDI2g52I0PL1wBAFit12A/exSOS6cxcu0SACBhxnVQXbcMifNvgiqJY/4TxYuIuidHTpxxF4zEBOCGhDcwfPZNjFgvACN2YMSOEesFDJ99E4NvNWDk4qmoNpqIwrDUI0/aDKMl+oM9RVQ0ek45xwhNTADuWNyP4VBhRyNDGOo/OM6Fow0VXnmuFebRA9UHY57n9UDTPL97mCsykGfsc//svbw7M7aiLeD6JanalYcSYFpePSx+I3Y553OuT96G4Nt1sdQjT5Zj63uSKG1D+GPq2W6Q42apR55730Pv21iPTbg2juffzPvcCNSG0eMS7u/nv55Qxzz4diZDREUjK2M+MtOScV9aL2arr+GV/hU4d3U2AKDl1Xfx0BMH8YP/OuJZwOHA0OkOOOzWqDRarg0V0gNAkwVWqwVW635k1jzqdfLmYOfJHue0k4+gq6hEqPrq63pd630eZY4tzpgEqwW2unz3PGX7XOu3WmCz1cjyULynNWXXILvikHwDlgNoRA5yTa2yN1zY7ZqrIWW3oKTL4tl2VyEas/1PqLBt8GWuhlb7oNcxtcC2qTXASR5GkH0b67EJ18Zx/5u5BT/3lLRB6f6EP8cD0JWjw/YSKnXhxqMN/o9nMBEVjdycpbg97RLmaS5jvnQVGz7Vi7OuonGo8z18/xt34F++cot8oZEhDH/0Vsj1DtmH0ff+RfS9fxFDdoVRjZZ30ZVbje360RfSUNkhPwncdOWoNhxHY0u/snVHmX5Tqd9rlpYWoGQXqg0NaDYrXVMbKooaYGhqlJ8UunJ0NJXCVBT8hArUhkDrLtvXgzq917r1NeioTFPaQABi+yZ2bKLXxnBCHi+Rcy+kMPsTte1ER8QfuToueQKRUmYOIGf+WQCA9Zod8+bMCLuMryH7MNpeP4WT3edwsvsc2l4/paxw6JYju7MGuxS/4SZLH4w1DcjNTJe91tIIlBSmQr+pFKYak7Kug7kVJtlJ5EVfAAPeRnfAOPtAbRBYtxCRfRM8NlFrY/h9CHm8onXuhdufSLYj6y62oULaDKOx2t298VzBbMCOIyrsLV6huOsaedEY/Njvta8/vh8OhwNff3w/Wl59V9Eyo86cvQzboB0F6zJQsC4DtkE7zpy9HHR+j3zUNZU6d9qvT+3DUo8aUw5KClMVrFe5vcUrgvRDPdMkaTtgssj/JTTvRhUKUaiD883e2YKWgG92EenIzD0uKxoh2xAh733WanXQrnoCnd4zKNi3iT82gdsv9DeTETj3xiQa2zmOqu4CdzcdVdthtNyNOtsB7LzFgbJ9PbB1lEOn4Oolqg93PfvoRvf/C+9cHs1Vh6avgdVqQVft285wZtlJcBw7VrlOguwWlHQ1KujniZH1j336rKPTmgzHUbVL3jc2Nzcgt2SD6w+Vj01R6zrlINNrAPlQbYiU9z6Pnoi5XtOV7NvkHBv/9ov8zfyEPPeiaMzbyUHt9rudP+o2oCQ39NyhRFw0VJq5GBjS4OXTOgwMaRQvE8ySRXMgaZLQergXrYd7IWmSsGSRWGaKrvIlWK3Pw2B6wOvGjudGqE3RjaHxoa/b49OuNjSbgCM7Nrr/xSveq0Jn1e7w/5LoC2AIdrlq3o2qzixZ0QjehmDrHuu/6mL7JnxsxuHKIxBFx8sl8LmndEPK92dM24mSiIvGlRnL8MppHc5dnY1XFBYO1XXLgk5TJyUi/7Z0rMpMwarMFOTflg51koLgFEs98vyqbk7AN83kysf22hxP39zcChNK3XfVR++0G6DkhqhrXb6fBFnqkVfUAEPT40Fukvm0Iei6gapsn3Wbq5V/eiK8b6LHJgptVCTM8YrauRdmf2LsHI+oaFy+cg3mE0mw2tVYPf8srHZ1+MKRoEbi/JUh16tOSkTa0mSkLU1WVjAAQFcOU+YzXv3rBwHfTxVCkPVtFT/DEGIdIR6o0VXuQi2cH+GZmxsAQ4HPmzsfmwyAqTl8F0JX+ZL7I1b3tl0fwcruwIdoQ8h1N2W5u3VarQ5Sc4HieyGR7JvosRlrGyP5m/lPHNu5J99OiP2J4nb8paGwJEfoRmhECWu/PtiNP394GWsyZmKV5nUcO5+CEx8tQsrMAdy7LMA1lkoFdep6JCSHuGtPRDHJN2EtoiuNu25Nw5xZM3DilBUnBj+LP15IwWz1INYtDnCjKkHNgkEURyIqGnNmzUDh+hswU6vBsV4rZmo1+Ju1GsyZOxdISAISkpCg/QQSF62BZmUpC0ZMkj+WHAuPJ9PUEPFX40cLR/vv+3D3rWmYPWsGgJuj2DQaX/mos/WibrKbQVPOmAKg58yagc+tz4xWW4hoCuDIXUQkhEWDiISwaBCREBYNIhLCokFEQlg0iEgIiwYRCRnTcxqjHHYbhj/6IyMMiKaBMV9pjFw8hcG3GuI0wkB80FWimBBrEQajRi6ewlD/QWBkKMRMExFhQEQTJeLuicNuxdDpDsDnm/Utr76Llw/3YdniOZ4RyV0RBprZi6BK0gZdp/3NVzH0+1cAAOpb70HSmjsjbR7R9KYrR4etXMGMfTDmbUB3dehxWLxFXDSGP3or4BXGaISB34jkrgiDpEVrg65z6A+HIP3jdwAAtp8ZWTSIYlBUIgy8RRph4Fz4KlSz5kI1ay5gvaqwJa7h2c2etLEKs8MVPuM9XLuLTyqZf+Ka8yvjUl49enxHMXItO26DxxJFy3SIMLD+eAcAB6w/3iH7WZnjqKoBTDYLrPu2OA9As/dw7bs9sXu7XPNZnfP6BguZilqxyWaBraMcK7yHm/NKNAuakkUUsxhh4CMHtSaDc4f1BShzrPYarn05st3hQWmorCsHjCXOilv8ot+aAg7K2/wopCKgyRb9+AOiiREjEQYTsUxUuboXBuwKmNURjKnrbeQGTS0jml4iLxoh4giiuUxUWXrRmVsNU6UzYc3S0iJPBQvCUN2IjiDhykTTTcRFI3H+SiBBLbCl8BEG406/DbWowSqtc5h4Q3eWoisNAK6PsPYARbpxjuAjmkgTFGEwyv1wV+hVMMKAaAqLSoSBe+HkdKhT14e+4mCEAVFcGfMX1hKS06GZvZhfWCOaJqLyLVdVkuR80jPE055EFB84ngYRCWHRICIhLBpEJIRFg4iEsGgQkRAWDSISwqJBREJYNIhICCMMiEgIIwyCCTUE/DgOD08UFYwwIKJYEfFX4x12KwbfetGvYASMMACABDU0K7dM0QgD8WHeiaaG8Oe271fjGWFARELiIMJAHj3gH00AOIdq90zzHXnLYtzsP801BPxvcNBvmPceyx6v4eHDrT/Y8PFE44gRBuGNRg/4RxO0oUJ6AF21B5zTrBbYmoAi6VF3cTBUZWGftcc5zVYjG41chXy/Yd5l0Qbh1g8g8PDxvIlKE4kRBn5k0QP6bajNbUCzGYC5FSavwYT9puuWIxsNKJJKInsjh1s/gGgOH08UGUYYREEOMnUAkI86Wy9stl2AQQcpah9Tja6fKL7ETYSBqfmQ+2eLcTuqOkuxSQ9AXwBDZw0Mxn7PzObdqEIhCnUALPUwmh0A0lDZcQC1ucfF8k3CrZ8ozsRNhIEBre6bPNlVWWiyjXZX8lFn24Psqg2eG5VFQFOHK5FNV47MZp1r2kZUZe8J8NGTfJh3ecZrmPUTxbRpGWHAZyiIxhMjDIhoTBhhQERC4iDCIA2VHb2TsF2i6YnjaRCREBYNIhLCokFEQlg0iEgIiwYRCWHRICIhLBpEJIRFg4iEMMKAiITEQYRBGypkQ/RFMB4GIwko3jDCgIhiRcTdE4fdiqHTHX5fiw8YYeBwYOh0BzSzF41vhIGuHB22crFl/JbjV+0pDih+L4if74wwICIhcRBh4CXQsO3meuS54gUqzA7AHCBKIERcgZKRjIhiDiMMInUcVTWAyeaMNdhbvAJSs/cw7rtl+SeB4go4ZB/FB0YYKJSDWpNrrE59Acocq72GcV+ObLwtNogw0ZTFCAMimiRxE2FARBMjbiIMokd8SHeiqWtaRhgQ0XhihAERjQkjDIhISBxEGBDRROJ4GkQkhEWDiISwaBCREBYNIhLCokFEQlg0iEgIiwYRCWHRICIhjDAgIiFxEGEQIxiDQLGEEQZEFCviK8JgMjEGgWIJIwyIKFbESYRBGypcMQX+0QSe1yvMo1dFfTDmZaDCLF/OMz3UskG2FyQGYcadT+GxvAxPmwDAXM1RwWh8McIglDZUSA+gq/aAc3h2qwUdlWkA+mDc5YovsDojDExFj8oiC0xFrdgUcHqoZYNtz8k3BuHaq9/Bv1eXorPxgPsPYm5ugKHawHgEmkCMMPAwt8KUWw1TZarPhDRU1pUDxhJndS1+0W9RQ9Pj0I8eJP021OY2oNkcZtmg2wtBXwBDZwtaLADQhmZTKTbpxXaTaGwYYRCeq3thwC53dVV8nMaybED52F4LNLb0w2J8BiZDgadYEU0xUz/CQF8AQ2cNdplHX2iD0dgHWHrR6XVFYGlpQafPoqbmQ+6fLcbtqOp0XQGEWjbY9sLQFRYCjbuxqxGeik80BcVBhEE+6rqq0VXkvMEjSa3IrEx1djdQg1XaFdBqdTB0Z/ldLRjQ6r4xlF2VhSabq7sSctkg25MJMCy8rhzV2Q0woRCFgQd3J5oEjDBQaHKeozBXZKAm84DsxilRrPONMBjTd08SktOhxnrnQ17BngpNUEO9LC+GCsYksdSjxlSKapvADVSiGMQIgwlgrshA8V4Vypp6eAOUprwxdU+IKP5FNWGNiKYfFg0iEsKiQURCWDSISAiLBhEJYdEgIiEsGkQkhEWDiIQwwoCIhEy/CINwQ+1xKD6KSW2ocA/fN7kYYUBEQmIqwoCIYl9sRRjYh3Hm7GUAwJJFc6BOSoy0eUQ0TmImwmDIPoy210/hZPc5nOw+h7bXT2HIPqysMQJxA/4DDIeaLo868NzrCBKZAMBi3Ox+XfLqgwZ7nSgy8nNQfk4FiyzwX1ZyzSdyHy9mIgzOnL0M26AdBesyULAuA7ZBu/uqI7TwcQNosrjjBvaV+RaUUNOdRqMOnEO8H0KF9Awyu0aX2Y+Sxg3OQmWph6EqC/usPbBaLbDZapzjZwR7nSgi/jEatiagSPKO6AgUWeD/nrDZdgGNDUJbn/oRBgriBrZ7xQXoN5Uqn+4iizowt2Kv6gR2rFrhquIbseOICl3d/YBuObLRgCKpRB68G+x1okgEitGQRXAAQSML/M75NFRW+5/zocRMhMGSRXMgaZLQergXrYd7IWmSsGTRnPArjXrcQHiOWx7BSddVgzwwKR91tl5n9Ta4Lv0sjhCvE0VTDjInYLysmIkwUCclIv+2dKzKTMGqzBTk35au7EaoUNxAH4w1Xpdi4aYH4rcMYK5w9Sct9TCaHQDSUNlxALW5x9FtQfDXiSLhOgcNxn7Pa+bdqFIy0n0k57yPiD89SZy/EsMfdoV+RsObgggDdVIi0pYmizVEvw21NRuwSvsEAOCWsi3yuIGmUmiLV2AvAIdjNWprS4FGpdMDcUYY5GXroFU5uyxl+3pQBxWgK0fmrgxoi52vO8r2wKZXAQj2OlEk8lFn24MKaQO0O1znlGMLmmxKoj7l56+yc15umkYYEJGbuRpSTQa6OgIXnaiOEZqQnA516vrQoUkJahYMopjRB2Oez8ezRQ3ILdmgOJCcEQZE00oaKk0ZyJN0KHZ1r2+pFQvwisq3XFVJkvNJzxBPexJRjNCVo8NWHvHiHE+DiISwaBCREBYNIhLCokFEQhTdCG1v5+OLROQU9uEumt5ee+19AMDtty+d5JZQrGDRoJDuvfcnAICXX946yS2hWPH/iql5224V/akAAAAASUVORK5CYII=;" vertex="1" parent="1">
          <mxGeometry x="520" y="60" width="269" height="181" as="geometry" />
        </mxCell>
        <mxCell id="VCMHvPQlhcBCw7pvo6eR-4" value="" style="rounded=0;whiteSpace=wrap;html=1;" vertex="1" parent="1">
          <mxGeometry x="540" y="335" width="30" height="25" as="geometry" />
        </mxCell>
        <mxCell id="VCMHvPQlhcBCw7pvo6eR-5" value="" style="rounded=0;whiteSpace=wrap;html=1;" vertex="1" parent="1">
          <mxGeometry x="570" y="335" width="30" height="25" as="geometry" />
        </mxCell>
        <mxCell id="VCMHvPQlhcBCw7pvo6eR-6" value="" style="rounded=0;whiteSpace=wrap;html=1;" vertex="1" parent="1">
          <mxGeometry x="600" y="335" width="30" height="25" as="geometry" />
        </mxCell>
        <mxCell id="VCMHvPQlhcBCw7pvo6eR-10" value="" style="rounded=0;whiteSpace=wrap;html=1;" vertex="1" parent="1">
          <mxGeometry x="630" y="335" width="30" height="25" as="geometry" />
        </mxCell>
        <mxCell id="VCMHvPQlhcBCw7pvo6eR-11" value="" style="rounded=0;whiteSpace=wrap;html=1;" vertex="1" parent="1">
          <mxGeometry x="660" y="335" width="30" height="25" as="geometry" />
        </mxCell>
        <mxCell id="VCMHvPQlhcBCw7pvo6eR-12" value="" style="rounded=0;whiteSpace=wrap;html=1;" vertex="1" parent="1">
          <mxGeometry x="690" y="335" width="30" height="25" as="geometry" />
        </mxCell>
        <mxCell id="VCMHvPQlhcBCw7pvo6eR-13" value="" style="rounded=0;whiteSpace=wrap;html=1;" vertex="1" parent="1">
          <mxGeometry x="720" y="335" width="30" height="25" as="geometry" />
        </mxCell>
        <mxCell id="VCMHvPQlhcBCw7pvo6eR-14" value="" style="rounded=0;whiteSpace=wrap;html=1;" vertex="1" parent="1">
          <mxGeometry x="750" y="335" width="30" height="25" as="geometry" />
        </mxCell>
        <mxCell id="VCMHvPQlhcBCw7pvo6eR-15" value="" style="rounded=0;whiteSpace=wrap;html=1;" vertex="1" parent="1">
          <mxGeometry x="780" y="335" width="30" height="25" as="geometry" />
        </mxCell>
        <mxCell id="VCMHvPQlhcBCw7pvo6eR-16" value="" style="rounded=0;whiteSpace=wrap;html=1;" vertex="1" parent="1">
          <mxGeometry x="810" y="335" width="30" height="25" as="geometry" />
        </mxCell>
        <mxCell id="VCMHvPQlhcBCw7pvo6eR-17" value="" style="rounded=0;whiteSpace=wrap;html=1;" vertex="1" parent="1">
          <mxGeometry x="840" y="335" width="30" height="25" as="geometry" />
        </mxCell>
        <mxCell id="VCMHvPQlhcBCw7pvo6eR-18" value="" style="rounded=0;whiteSpace=wrap;html=1;" vertex="1" parent="1">
          <mxGeometry x="870" y="335" width="30" height="25" as="geometry" />
        </mxCell>
        <mxCell id="VCMHvPQlhcBCw7pvo6eR-19" value="" style="rounded=0;whiteSpace=wrap;html=1;" vertex="1" parent="1">
          <mxGeometry x="900" y="335" width="30" height="25" as="geometry" />
        </mxCell>
        <mxCell id="VCMHvPQlhcBCw7pvo6eR-20" value="" style="rounded=0;whiteSpace=wrap;html=1;" vertex="1" parent="1">
          <mxGeometry x="930" y="335" width="30" height="25" as="geometry" />
        </mxCell>
        <mxCell id="VCMHvPQlhcBCw7pvo6eR-21" value="" style="rounded=0;whiteSpace=wrap;html=1;" vertex="1" parent="1">
          <mxGeometry x="960" y="335" width="30" height="25" as="geometry" />
        </mxCell>
        <mxCell id="VCMHvPQlhcBCw7pvo6eR-22" value="" style="rounded=0;whiteSpace=wrap;html=1;" vertex="1" parent="1">
          <mxGeometry x="990" y="335" width="30" height="25" as="geometry" />
        </mxCell>
        <mxCell id="VCMHvPQlhcBCw7pvo6eR-23" value="" style="rounded=0;whiteSpace=wrap;html=1;" vertex="1" parent="1">
          <mxGeometry x="1020" y="335" width="30" height="25" as="geometry" />
        </mxCell>
        <mxCell id="VCMHvPQlhcBCw7pvo6eR-24" value="" style="rounded=0;whiteSpace=wrap;html=1;" vertex="1" parent="1">
          <mxGeometry x="1050" y="335" width="30" height="25" as="geometry" />
        </mxCell>
        <mxCell id="VCMHvPQlhcBCw7pvo6eR-25" value="容量大小" style="text;html=1;strokeColor=none;fillColor=none;align=center;verticalAlign=middle;whiteSpace=wrap;rounded=0;" vertex="1" parent="1">
          <mxGeometry x="630" y="190" width="60" height="30" as="geometry" />
        </mxCell>
        <mxCell id="VCMHvPQlhcBCw7pvo6eR-26" value="限制指针" style="text;html=1;strokeColor=none;fillColor=none;align=center;verticalAlign=middle;whiteSpace=wrap;rounded=0;" vertex="1" parent="1">
          <mxGeometry x="630" y="167" width="60" height="30" as="geometry" />
        </mxCell>
        <mxCell id="VCMHvPQlhcBCw7pvo6eR-28" value="读写指针" style="text;html=1;strokeColor=none;fillColor=none;align=center;verticalAlign=middle;whiteSpace=wrap;rounded=0;" vertex="1" parent="1">
          <mxGeometry x="629" y="144" width="60" height="30" as="geometry" />
        </mxCell>
        <mxCell id="VCMHvPQlhcBCw7pvo6eR-29" value="虚拟内存地址" style="text;html=1;strokeColor=none;fillColor=none;align=center;verticalAlign=middle;whiteSpace=wrap;rounded=0;" vertex="1" parent="1">
          <mxGeometry x="626" y="211" width="90" height="30" as="geometry" />
        </mxCell>
        <mxCell id="VCMHvPQlhcBCw7pvo6eR-30" value="" style="endArrow=classic;html=1;rounded=0;entryX=0.5;entryY=1;entryDx=0;entryDy=0;" edge="1" parent="1" target="VCMHvPQlhcBCw7pvo6eR-4">
          <mxGeometry width="50" height="50" relative="1" as="geometry">
            <mxPoint x="555" y="410" as="sourcePoint" />
            <mxPoint x="620" y="430" as="targetPoint" />
          </mxGeometry>
        </mxCell>
        <mxCell id="VCMHvPQlhcBCw7pvo6eR-31" value="position=0" style="text;html=1;align=center;verticalAlign=middle;resizable=0;points=[];autosize=1;strokeColor=none;fillColor=none;" vertex="1" parent="1">
          <mxGeometry x="520" y="410" width="70" height="20" as="geometry" />
        </mxCell>
        <mxCell id="VCMHvPQlhcBCw7pvo6eR-32" value="" style="endArrow=classic;html=1;rounded=0;entryX=0.75;entryY=1;entryDx=0;entryDy=0;" edge="1" parent="1">
          <mxGeometry width="50" height="50" relative="1" as="geometry">
            <mxPoint x="675" y="410" as="sourcePoint" />
            <mxPoint x="674.5" y="360" as="targetPoint" />
          </mxGeometry>
        </mxCell>
        <mxCell id="VCMHvPQlhcBCw7pvo6eR-33" value="limit=4" style="text;html=1;align=center;verticalAlign=middle;resizable=0;points=[];autosize=1;strokeColor=none;fillColor=none;" vertex="1" parent="1">
          <mxGeometry x="649" y="410" width="50" height="20" as="geometry" />
        </mxCell>
        <mxCell id="VCMHvPQlhcBCw7pvo6eR-34" value="" style="endArrow=classic;html=1;rounded=0;entryX=0.5;entryY=1;entryDx=0;entryDy=0;" edge="1" parent="1" target="VCMHvPQlhcBCw7pvo6eR-15">
          <mxGeometry width="50" height="50" relative="1" as="geometry">
            <mxPoint x="795" y="410" as="sourcePoint" />
            <mxPoint x="840" y="370" as="targetPoint" />
          </mxGeometry>
        </mxCell>
        <mxCell id="VCMHvPQlhcBCw7pvo6eR-35" value="capacity=8" style="text;html=1;align=center;verticalAlign=middle;resizable=0;points=[];autosize=1;strokeColor=none;fillColor=none;" vertex="1" parent="1">
          <mxGeometry x="760" y="410" width="70" height="20" as="geometry" />
        </mxCell>
        <mxCell id="VCMHvPQlhcBCw7pvo6eR-36" value="0x00001" style="text;html=1;strokeColor=none;fillColor=none;align=center;verticalAlign=middle;whiteSpace=wrap;rounded=0;" vertex="1" parent="1">
          <mxGeometry x="470" y="332.5" width="60" height="30" as="geometry" />
        </mxCell>
        <mxCell id="VCMHvPQlhcBCw7pvo6eR-37" value="为某一读过的位置做标记，便于某些时候回退到该位置" style="text;html=1;strokeColor=none;fillColor=none;align=center;verticalAlign=middle;whiteSpace=wrap;rounded=0;" vertex="1" parent="1">
          <mxGeometry x="610" y="120" width="150" height="30" as="geometry" />
        </mxCell>
      </root>
    </mxGraphModel>
  </diagram>
</mxfile>
